<svg xmlns="http://www.w3.org/2000/svg" width="288" height="288" fill="none" xmlns:v="https://vecta.io/nano"><path d="M288 144c0 79.529-64.471 144-144 144S0 223.529 0 144 64.471 0 144 0s144 64.471 144 144z" fill="#202124"/><path d="M225.574 92.599c-3.294 10.257-7.15 20.364-11.567 30.322s-9.509 19.466-15.274 28.525c-5.69 8.985-12.091 17.333-19.204 25.044-7.037 7.637-14.861 14.263-23.471 19.878-8.536 5.541-17.857 9.92-27.964 13.14-10.033 3.144-20.926 4.717-32.681 4.717-2.022 0-3.931-.375-5.728-1.123s-3.369-1.76-4.717-3.033c-1.348-1.347-2.396-2.882-3.145-4.604-.749-1.797-1.123-3.706-1.123-5.728V92.599H109.9v91.303c7.113 0 13.926-1.534 20.44-4.604 6.588-3.07 12.803-7.113 18.642-12.129 5.84-5.091 11.231-10.856 16.172-17.295 5.017-6.439 9.471-13.027 13.365-19.766 3.893-6.813 7.187-13.476 9.882-19.99 2.771-6.514 4.829-12.353 6.177-17.519h30.996z" fill="#fbfbfb"/></svg>